<svg width="auto" height="auto" viewBox="0 0 16 11" fill="none" xmlns="http://www.w3.org/2000/svg">
<g filter="url(#filter0_d_20_14)">
<path d="M13.5306 1.53063L8.53063 6.53063C8.46095 6.60055 8.37816 6.65602 8.28699 6.69388C8.19583 6.73173 8.09809 6.75122 7.99938 6.75122C7.90067 6.75122 7.80293 6.73173 7.71176 6.69388C7.6206 6.65602 7.53781 6.60055 7.46813 6.53063L2.46813 1.53063C2.32723 1.38973 2.24808 1.19864 2.24808 0.999378C2.24808 0.80012 2.32723 0.609024 2.46813 0.468128C2.60902 0.327231 2.80012 0.248077 2.99938 0.248077C3.19864 0.248077 3.38973 0.327231 3.53063 0.468128L8 4.9375L12.4694 0.467503C12.6103 0.326607 12.8014 0.247452 13.0006 0.247452C13.1999 0.247452 13.391 0.326607 13.5319 0.467503C13.6728 0.608399 13.7519 0.799496 13.7519 0.998753C13.7519 1.19801 13.6728 1.38911 13.5319 1.53L13.5306 1.53063Z" fill="black"/>
<path d="M13.1885 1.1656L13.1771 1.17707L8.17707 6.17707L8.17646 6.17769C8.15324 6.20099 8.12564 6.21949 8.09525 6.23211C8.06486 6.24472 8.03228 6.25122 7.99938 6.25122C7.96648 6.25122 7.9339 6.24472 7.90351 6.23211C7.87312 6.21949 7.84552 6.20099 7.8223 6.17769L7.82168 6.17707L2.82168 1.17707C2.77455 1.12995 2.74808 1.06603 2.74808 0.999378C2.74808 0.932729 2.77455 0.868809 2.82168 0.821681C2.86881 0.774553 2.93273 0.748077 2.99938 0.748077C3.06603 0.748077 3.12995 0.774553 3.17708 0.821681L7.64645 5.29106L8.00003 5.64463L8.35358 5.29103L12.8229 0.821056C12.8229 0.821051 12.8229 0.821046 12.8229 0.82104C12.8701 0.773922 12.934 0.747452 13.0006 0.747452C13.0673 0.747452 13.1312 0.773928 13.1783 0.821056C13.2255 0.868187 13.2519 0.932107 13.2519 0.998753C13.2519 1.06042 13.2293 1.11974 13.1885 1.1656Z" stroke="black"/>
</g>
<defs>
<filter id="filter0_d_20_14" x="-1.75192" y="0.247452" width="auto" height="auto" filterUnits="userSpaceOnUse" color-interpolation-filters="sRGB">
<feFlood flood-opacity="0" result="BackgroundImageFix"/>
<feColorMatrix in="SourceAlpha" type="matrix" values="0 0 0 0 0 0 0 0 0 0 0 0 0 0 0 0 0 0 127 0" result="hardAlpha"/>
<feOffset dy="4"/>
<feGaussianBlur stdDeviation="2"/>
<feComposite in2="hardAlpha" operator="out"/>
<feColorMatrix type="matrix" values="0 0 0 0 0 0 0 0 0 0 0 0 0 0 0 0 0 0 0.25 0"/>
<feBlend mode="normal" in2="BackgroundImageFix" result="effect1_dropShadow_20_14"/>
<feBlend mode="normal" in="SourceGraphic" in2="effect1_dropShadow_20_14" result="shape"/>
</filter>
</defs>
</svg>
